<svg width="60" height="49" viewBox="0 0 60 49" fill="none" xmlns="http://www.w3.org/2000/svg">
<g id="Capa_1" clip-path="url(#clip0_101559_4004)">
<path id="Vector" d="M43.6302 4.50981L36.1273 12.0878C33.9431 10.8917 31.4499 10.3428 28.9393 10.5364C26.5298 10.7213 24.2359 11.5793 22.306 12.9863C20.5523 12.4692 18.7265 12.2034 16.9064 12.2034H16.8312C13.8613 12.2207 10.9867 12.9141 8.37207 14.2286C9.49303 11.6082 11.0849 9.2132 13.0697 7.1533C15.8518 4.27291 19.3129 2.15234 23.1294 0.996714C26.9458 -0.15891 30.9934 -0.31203 34.885 0.548909C38.0485 1.24806 41.0213 2.60014 43.6302 4.50981Z" fill="black"/>
<path id="Vector_2" d="M59.2407 36.7171C58.1602 40.2273 55.9905 43.2897 53.0523 45.4565C50.1141 47.6233 46.5635 48.7789 42.9261 48.75H32.1875V38.2194H42.9261C43.7813 38.2194 44.6278 38.0489 45.4194 37.7167C46.2081 37.3873 46.9275 36.902 47.5313 36.2924C48.1351 35.6828 48.6176 34.9576 48.944 34.1574C49.2705 33.36 49.441 32.5048 49.441 31.641C49.441 30.7772 49.2705 29.922 48.944 29.1246C48.6176 28.3272 48.1351 27.6021 47.5313 26.9896C46.9275 26.38 46.2081 25.8947 45.4194 25.5653C44.6278 25.2331 43.7813 25.0626 42.9261 25.0626V23.751C42.9608 21.7633 42.5506 19.793 41.7243 17.9873C41.3603 17.1899 40.9182 16.4359 40.4069 15.7338C39.7886 14.8816 39.0635 14.1044 38.2545 13.4226C38.2199 13.3937 38.1823 13.3619 38.1476 13.333L45.3645 6.04682L45.4685 5.94281C46.1792 6.5784 46.8466 7.25444 47.4706 7.96804C49.857 10.6895 51.5991 13.9368 52.5496 17.4702C55.5658 19.5272 57.8424 22.5116 59.0471 25.9784C60.2518 29.4453 60.3183 33.2098 59.2407 36.7171Z" fill="black"/>
<path id="Vector_3" d="M30.352 21.2202L22.7942 28.8502C22.358 27.8823 21.6993 27.0329 20.8672 26.3771C20.0381 25.7213 19.0616 25.2793 18.0273 25.0886C16.9901 24.8979 15.9212 24.9644 14.9158 25.2822C13.9104 25.5971 12.9946 26.1576 12.2492 26.9087C11.5038 27.6599 10.952 28.5844 10.6371 29.6013C10.3222 30.6154 10.2586 31.693 10.4464 32.7417C10.6371 33.7876 11.0733 34.7727 11.7234 35.6106C11.784 35.6857 11.8447 35.7637 11.9083 35.8359C12.5294 36.5697 13.3008 37.1562 14.1733 37.5549H14.1704L6.63284 45.1676L6.61551 45.1849C5.92502 44.6475 5.27787 44.0582 4.68273 43.4255C2.86551 41.5014 1.50765 39.167 0.73338 36.5986C-0.292236 33.1895 -0.240233 29.5406 0.8865 26.1633C1.57121 24.1092 2.63438 22.2169 4.00957 20.5788C4.88785 19.5243 5.89902 18.5796 7.01998 17.7591C7.21354 17.6175 7.41 17.4788 7.60934 17.3459H7.61223C10.3482 15.52 13.555 14.5349 16.8457 14.5146C17.958 14.5118 19.0645 14.6187 20.1508 14.8324H20.1536C21.0464 15.0087 21.9246 15.2571 22.7798 15.5778C23.3229 15.7801 23.8574 16.0112 24.3774 16.2683C26.7205 17.4326 28.7659 19.1285 30.352 21.2202Z" fill="black"/>
<path id="Vector_4" d="M29.8759 38.1443V48.6749H16.8462C13.9283 48.6894 11.0739 47.9382 8.55176 46.5139L16.8434 38.1443H29.8759Z" fill="black"/>
</g>
<defs>
<clipPath id="clip0_101559_4004">
<rect width="60" height="48.75" fill="white"/>
</clipPath>
</defs>
</svg>
