<svg width="50" height="60" viewBox="0 0 50 60" fill="none" xmlns="http://www.w3.org/2000/svg">
<g id="Capa_1" clip-path="url(#clip0_101559_4012)">
<path id="Vector" d="M49.1891 49.182C48.9992 48.837 48.793 48.4848 48.5247 48.2037C47.6504 47.2874 47.2233 46.1868 46.9824 44.9658C46.725 43.6498 46.2633 42.4306 44.8104 41.8593C46.0077 37.9114 45.2722 34.3047 43.5985 30.7894C42.1182 27.6792 39.9389 25.0619 37.8089 22.4081C35.8085 19.9148 34.832 17.1569 34.9342 13.8989C35.009 11.5189 34.8064 9.08952 34.3775 6.74413C33.7661 3.40218 31.9409 0.86697 28.3835 0.20077C26.9197 -0.0748362 25.35 -0.0365069 23.8589 0.133237C20.2449 0.542083 17.7572 2.76518 17.1676 6.34624C16.8044 8.54014 16.746 10.8308 16.9012 13.0539C17.1987 17.3139 16.2934 21.0957 13.5118 24.434C12.1374 26.084 10.9346 27.9019 9.83214 29.7509C7.84814 33.0782 6.38432 36.5936 6.71286 40.6054C6.72564 40.7769 6.72016 41.0069 6.6216 41.1219C5.53195 42.3922 4.71609 43.8816 2.87628 44.4164C0.695157 45.0497 0.0453839 46.3621 0.428677 48.6217C0.642226 49.892 0.664129 51.1094 0.268059 52.3871C-0.47845 54.7854 0.32464 55.99 2.79779 56.5084C3.09348 56.5704 3.39464 56.6179 3.6958 56.6526C6.11785 56.9172 8.49244 57.2932 10.7119 58.4394C11.6318 58.914 12.7269 59.1367 13.7673 59.2681C15.8736 59.5327 17.7718 59.1111 19.0221 57.1545C19.1097 57.0176 19.2703 56.8497 19.4126 56.8351C21.8201 56.5777 24.2275 56.2565 26.6459 56.1415C27.9656 56.0776 29.2998 56.4116 30.6322 56.4901C31.1615 56.5211 31.4116 56.6708 31.6379 57.1691C32.5614 59.2152 34.352 60.2026 36.5751 59.9653C38.654 59.7408 40.2985 58.6731 41.6382 57.1581C42.7935 55.8513 44.1643 54.8985 45.7066 54.1393C46.6046 53.6957 47.5135 53.2559 48.3495 52.7119C49.7567 51.8012 50.0013 50.6549 49.1891 49.182ZM24.4447 11.2524C24.5451 10.7541 24.7185 10.2504 24.9594 9.805C26.0893 7.71514 28.5533 7.67499 29.7762 9.70462C30.7508 11.3236 30.6249 13.397 29.413 14.8681C28.9311 14.6692 28.4894 14.4867 28.1864 14.3607C28.2612 13.4791 28.4219 12.7071 28.3653 11.9496C28.316 11.2743 27.9783 10.5844 27.1625 10.5807C26.4014 10.5752 26.1112 11.2305 25.9341 11.8584C25.8209 12.2581 25.8246 12.6907 25.7771 13.1105C24.3444 12.8239 24.1728 12.6103 24.4447 11.2524ZM18.8724 9.28665C19.5222 8.66973 20.3198 8.60584 21.0042 9.17348C22.0227 10.0204 22.3658 11.1812 22.2162 12.4333C22.176 12.7582 21.5846 13.0155 21.1028 13.4262C20.9805 12.6888 20.9604 11.5006 20.0186 11.256C19.3159 11.0735 19.1845 12.1796 19.1754 12.6286C19.1699 12.8914 19.6554 14.4538 19.5222 14.5597C19.5039 14.5743 19.3031 14.7385 19.1097 14.8973C17.6276 13.6544 17.5199 10.5716 18.8724 9.28665ZM18.9344 15.527C19.5149 15.0908 20.0752 14.6254 20.6282 14.1545C21.4386 13.4682 22.3257 12.9918 23.4518 12.9097C24.0852 13.0977 24.7386 13.2346 25.3446 13.4883C26.5985 14.0121 27.8268 14.6016 29.0662 15.1602C30.6851 15.8921 30.895 17.1332 29.5882 18.3506C29.3016 18.6171 28.9731 18.8507 28.6299 19.0369C27.5658 19.61 26.4871 20.1594 25.4085 20.7051C23.6964 21.5721 22.2563 21.3713 20.7962 20.1265C20.1975 19.6173 19.5295 19.192 18.9125 18.7029C17.4779 17.5731 17.4962 16.6075 18.9344 15.527ZM18.3613 56.8314C17.5619 58.2496 16.1638 58.5344 14.1488 58.653C13.3657 58.4358 11.9968 58.266 10.8305 57.6856C8.62568 56.5905 6.30219 56.1689 3.90569 55.9389C3.66294 55.917 3.42384 55.8787 3.18474 55.833C0.852125 55.384 0.300913 54.5901 1.04925 52.3542C1.5092 50.9762 1.33033 49.6639 1.14051 48.3132C0.89228 46.5428 1.35771 45.6539 3.0588 45.1118C4.52627 44.6427 5.57576 43.7703 6.45916 42.5364C7.95583 40.4484 9.65874 40.3845 11.2795 42.3831C12.0753 43.3632 12.632 44.5332 13.3146 45.6082C14.3185 47.1907 15.3224 48.7732 16.3554 50.3374C16.8902 51.1459 17.5108 51.8997 18.0474 52.7083C18.9144 54.0151 19.1608 55.4114 18.3613 56.8314ZM31.8021 51.4982C28.17 53.8746 24.3498 54.7817 20.1446 53.0387C18.6515 52.4181 17.916 51.1678 17.0691 49.9723C17.1421 49.8938 17.1749 49.8245 17.2224 49.8117C18.9764 49.3463 19.493 48.3552 18.511 46.7965C17.7809 45.6374 16.7551 44.6445 15.7677 43.6717C15.1709 43.0822 14.4098 42.6514 13.6979 42.1878C10.8214 40.306 9.88872 38.2016 10.5056 34.8103C10.9911 32.1364 12.3016 29.8257 13.6961 27.557C13.7709 27.5916 13.8439 27.6245 13.917 27.6592C13.561 28.3746 13.2142 29.0956 12.8474 29.8056C11.7669 31.8882 10.9747 34.0547 11.2978 36.4421C11.4237 37.3839 11.8307 38.2873 12.11 39.2091C12.1976 39.1817 12.287 39.1543 12.3747 39.1251C12.5718 37.9698 12.6448 36.7761 12.9934 35.6682C13.5647 33.8503 14.2491 32.0597 15.0084 30.3112C16.3372 27.2467 17.7973 24.2369 18.4416 20.926C18.5493 20.3656 18.6242 19.7998 18.7446 19.0515C19.4126 19.5553 19.9803 19.9422 20.5005 20.3857C22.134 21.782 23.6727 22.0339 25.538 21.0683C27.1935 20.2123 28.807 19.2778 30.4022 18.3962C31.1013 20.3437 31.7656 22.461 32.618 24.4979C33.6602 26.9893 34.905 29.3931 35.9727 31.8736C36.524 33.1512 36.9182 34.5 37.3161 35.8361C37.6209 36.8619 37.5753 36.8746 38.842 37.0243C39.9827 32.8044 38.267 29.5282 35.6971 26.4399C35.8286 26.5075 35.9892 26.5476 36.0859 26.6498C38.7982 29.5227 40.5668 32.7752 40.0977 36.8892C40.043 37.3802 40.2145 37.5682 40.6124 37.7854C41.3553 38.1888 42.1292 38.594 42.7479 39.1561C43.1878 39.554 43.4506 40.1874 43.6769 40.7623C43.7664 40.9941 43.5455 41.3482 43.3831 41.6183C42.6165 39.5577 40.2218 37.9022 37.9695 37.915C36.9511 37.9205 36.3688 38.3768 36.0476 39.3879C35.9691 39.6362 35.8888 39.9866 35.7026 40.0797C33.7715 41.0525 33.4266 42.8613 33.1601 44.734C32.8808 46.7125 32.5888 48.6892 32.2657 50.6604C32.2165 50.9616 32.0412 51.3412 31.8021 51.4982ZM41.1326 41.5599C40.4974 42.4342 39.6159 43.0256 38.5445 43.0475C38.0571 43.0566 37.3033 42.7171 37.1208 42.3265C36.7448 41.5161 36.5422 40.5689 36.5112 39.669C36.4199 37.0444 42.5763 39.5723 41.1326 41.5599ZM47.8786 52.1461C47.1631 52.5988 46.3965 52.9784 45.6299 53.3398C43.9069 54.1539 42.3646 55.1833 41.107 56.6489C40.1032 57.8189 38.8474 58.6658 37.3325 59.0856C34.153 59.9653 31.6123 57.7422 32.0978 54.486C32.1873 53.8855 32.2877 53.2759 32.4848 52.7083C33.3682 50.1585 33.7204 47.5247 33.8993 44.8471C33.9541 44.044 34.1567 43.2172 34.4651 42.4725C34.7134 41.8702 35.2226 41.3774 35.7026 40.7149C36.0549 41.6822 36.221 42.3703 36.5422 42.9781C37.161 44.1517 38.1885 44.6336 39.4406 44.2211C40.3441 43.9254 41.2366 43.4691 42.0032 42.9051C43.3009 41.9524 45.1371 42.3064 45.8234 43.7666C45.8508 43.8214 45.8909 43.8725 45.9037 43.9309C46.3217 46.0116 47.1813 47.8587 48.4973 49.5562C49.3168 50.613 49.0284 51.4197 47.8786 52.1461Z" fill="black"/>
<path id="Vector_2" d="M29.1664 16.801C27.0382 17.8067 25.2185 19.5936 22.6084 19.3782C20.8581 19.234 19.6206 18.1736 18.54 16.9252C18.5948 16.8467 18.6496 16.7664 18.7061 16.6879C18.9799 16.927 19.2573 17.1624 19.5293 17.4052C21.6119 19.2742 23.2472 19.5042 25.7533 18.2393C26.5107 17.8578 27.2262 17.3961 27.9727 16.9945C28.3195 16.8065 28.6973 16.6769 29.0605 16.5218C29.0952 16.6149 29.1317 16.708 29.1664 16.801Z" fill="black"/>
</g>
<defs>
<clipPath id="clip0_101559_4012">
<rect width="49.6511" height="60" fill="white"/>
</clipPath>
</defs>
</svg>
