<svg id="Ebene_1" data-name="Ebene 1" xmlns="http://www.w3.org/2000/svg" xmlns:xlink="http://www.w3.org/1999/xlink" viewBox="0 0 67 30"><defs><clipPath id="clip-path"><rect width="67" height="30" fill="none"/></clipPath></defs><g clip-path="url(#clip-path)"><g id="logo"><g id="Group"><path id="Vector" d="M0,0H12.469V4.667H6.11V25.333h6.359V30H0Z"/><path d="M14.12,10.925v-.06C14.12,4.777,19.239,0,26.183,0a13.637,13.637,0,0,1,9.088,3.045L31.623,7.135a8.224,8.224,0,0,0-5.408-1.97,5.668,5.668,0,0,0-5.728,5.73v.06a5.719,5.719,0,0,0,6.08,5.79,6.677,6.677,0,0,0,3.583-.866V13.343H25.735V9.1h10.3v9.4a15.824,15.824,0,0,1-9.728,3.223C19.335,21.729,14.12,17.252,14.12,10.925Z"/><path d="M29.828,9.105h6.208v8.477l7.712-8.477h7.359L42.628,18.09,51.4,30H43.939l-5.631-7.76L36.036,24.6V30H29.828Z"/><path id="Vector_4" data-name="Vector 4" d="M54.531,25.333H60.89V4.667H54.531V0H67V30H54.531Z"/></g></g></g></svg>